{
	"asset":{
		"generator":"Khronos glTF Blender I/O v4.5.48",
		"version":"2.0"
	},
	"scene":0,
	"scenes":[
		{
			"name":"Scene",
			"nodes":[
				0,
				1,
				2,
				3,
				4,
				5,
				6,
				7,
				8
			]
		}
	],
	"nodes":[
		{
			"mesh":0,
			"name":"PosY"
		},
		{
			"mesh":1,
			"name":"PosZ"
		},
		{
			"mesh":2,
			"name":"PosX"
		},
		{
			"mesh":3,
			"name":"ScaleY"
		},
		{
			"mesh":4,
			"name":"ScaleZ"
		},
		{
			"mesh":5,
			"name":"ScaleX"
		},
		{
			"mesh":6,
			"name":"RotateY"
		},
		{
			"mesh":7,
			"name":"RotateZ"
		},
		{
			"mesh":8,
			"name":"RotateX"
		}
	],
	"materials":[
		{
			"doubleSided":true,
			"name":"Y",
			"pbrMetallicRoughness":{
				"baseColorFactor":[
					0.04554564505815506,
					0.800481915473938,
					0.08686291426420212,
					1
				],
				"metallicFactor":0,
				"roughnessFactor":0.5
			}
		},
		{
			"doubleSided":true,
			"name":"Z",
			"pbrMetallicRoughness":{
				"baseColorFactor":[
					0.02214132994413376,
					0.023736808449029922,
					0.8004080057144165,
					1
				],
				"metallicFactor":0,
				"roughnessFactor":0.5
			}
		},
		{
			"doubleSided":true,
			"name":"X",
			"pbrMetallicRoughness":{
				"baseColorFactor":[
					0.8000785112380981,
					0.10234792530536652,
					0.08365866541862488,
					1
				],
				"metallicFactor":0,
				"roughnessFactor":0.5
			}
		}
	],
	"meshes":[
		{
			"name":"Cone.004",
			"primitives":[
				{
					"attributes":{
						"POSITION":0,
						"NORMAL":1,
						"TEXCOORD_0":2,
						"TANGENT":3
					},
					"indices":4,
					"material":0
				}
			]
		},
		{
			"name":"Cone.005",
			"primitives":[
				{
					"attributes":{
						"POSITION":5,
						"NORMAL":6,
						"TEXCOORD_0":7,
						"TANGENT":8
					},
					"indices":9,
					"material":1
				}
			]
		},
		{
			"name":"Cone.006",
			"primitives":[
				{
					"attributes":{
						"POSITION":10,
						"NORMAL":11,
						"TEXCOORD_0":12,
						"TANGENT":13
					},
					"indices":14,
					"material":2
				}
			]
		},
		{
			"name":"Cube.009",
			"primitives":[
				{
					"attributes":{
						"POSITION":15,
						"NORMAL":16,
						"TEXCOORD_0":17,
						"TANGENT":18
					},
					"indices":19,
					"material":0
				}
			]
		},
		{
			"name":"Cube.010",
			"primitives":[
				{
					"attributes":{
						"POSITION":20,
						"NORMAL":21,
						"TEXCOORD_0":22,
						"TANGENT":23
					},
					"indices":24,
					"material":1
				}
			]
		},
		{
			"name":"Cube.011",
			"primitives":[
				{
					"attributes":{
						"POSITION":25,
						"NORMAL":26,
						"TEXCOORD_0":27,
						"TANGENT":28
					},
					"indices":29,
					"material":2
				}
			]
		},
		{
			"name":"Circle.006",
			"primitives":[
				{
					"attributes":{
						"POSITION":30,
						"NORMAL":31,
						"TEXCOORD_0":32,
						"TANGENT":33
					},
					"indices":34,
					"material":0
				}
			]
		},
		{
			"name":"Circle.007",
			"primitives":[
				{
					"attributes":{
						"POSITION":35,
						"NORMAL":36,
						"TEXCOORD_0":37,
						"TANGENT":38
					},
					"indices":39,
					"material":1
				}
			]
		},
		{
			"name":"Circle.008",
			"primitives":[
				{
					"attributes":{
						"POSITION":40,
						"NORMAL":41,
						"TEXCOORD_0":42,
						"TANGENT":43
					},
					"indices":44,
					"material":2
				}
			]
		}
	],
	"accessors":[
		{
			"bufferView":0,
			"componentType":5126,
			"count":318,
			"max":[
				0.02846074104309082,
				1.2305010557174683,
				0.02846074104309082
			],
			"min":[
				-0.02846074104309082,
				0,
				-0.02846074104309082
			],
			"type":"VEC3"
		},
		{
			"bufferView":1,
			"componentType":5126,
			"count":318,
			"type":"VEC3"
		},
		{
			"bufferView":2,
			"componentType":5126,
			"count":318,
			"type":"VEC2"
		},
		{
			"bufferView":3,
			"componentType":5126,
			"count":318,
			"type":"VEC4"
		},
		{
			"bufferView":4,
			"componentType":5123,
			"count":414,
			"type":"SCALAR"
		},
		{
			"bufferView":5,
			"componentType":5126,
			"count":318,
			"max":[
				0.02846074104309082,
				0.02846069075167179,
				2.6339697090094205e-10
			],
			"min":[
				-0.02846074104309082,
				-0.028460793197155,
				-1.2305010557174683
			],
			"type":"VEC3"
		},
		{
			"bufferView":6,
			"componentType":5126,
			"count":318,
			"type":"VEC3"
		},
		{
			"bufferView":7,
			"componentType":5126,
			"count":318,
			"type":"VEC2"
		},
		{
			"bufferView":8,
			"componentType":5126,
			"count":318,
			"type":"VEC4"
		},
		{
			"bufferView":9,
			"componentType":5123,
			"count":414,
			"type":"SCALAR"
		},
		{
			"bufferView":10,
			"componentType":5126,
			"count":326,
			"max":[
				1.2305010557174683,
				0.028460830450057983,
				0.02846074104309082
			],
			"min":[
				-4.54936838201192e-10,
				-0.028460653498768806,
				-0.02846074104309082
			],
			"type":"VEC3"
		},
		{
			"bufferView":11,
			"componentType":5126,
			"count":326,
			"type":"VEC3"
		},
		{
			"bufferView":12,
			"componentType":5126,
			"count":326,
			"type":"VEC2"
		},
		{
			"bufferView":13,
			"componentType":5126,
			"count":326,
			"type":"VEC4"
		},
		{
			"bufferView":14,
			"componentType":5123,
			"count":414,
			"type":"SCALAR"
		},
		{
			"bufferView":15,
			"componentType":5126,
			"count":48,
			"max":[
				0.024868806824088097,
				1.2177211046218872,
				0.024868806824088097
			],
			"min":[
				-0.024868806824088097,
				-8.603652901228998e-08,
				-0.024868806824088097
			],
			"type":"VEC3"
		},
		{
			"bufferView":16,
			"componentType":5126,
			"count":48,
			"type":"VEC3"
		},
		{
			"bufferView":17,
			"componentType":5126,
			"count":48,
			"type":"VEC2"
		},
		{
			"bufferView":18,
			"componentType":5126,
			"count":48,
			"type":"VEC4"
		},
		{
			"bufferView":19,
			"componentType":5123,
			"count":72,
			"type":"SCALAR"
		},
		{
			"bufferView":20,
			"componentType":5126,
			"count":48,
			"max":[
				0.024868806824088097,
				0.024868670850992203,
				2.6339699865651767e-10
			],
			"min":[
				-0.024868806824088097,
				-0.02486894652247429,
				-1.2177212238311768
			],
			"type":"VEC3"
		},
		{
			"bufferView":21,
			"componentType":5126,
			"count":48,
			"type":"VEC3"
		},
		{
			"bufferView":22,
			"componentType":5126,
			"count":48,
			"type":"VEC2"
		},
		{
			"bufferView":23,
			"componentType":5126,
			"count":48,
			"type":"VEC4"
		},
		{
			"bufferView":24,
			"componentType":5123,
			"count":72,
			"type":"SCALAR"
		},
		{
			"bufferView":25,
			"componentType":5126,
			"count":48,
			"max":[
				1.2177212238311768,
				0.024868812412023544,
				0.024868806824088097
			],
			"min":[
				-4.5493686595676763e-10,
				-0.024868804961442947,
				-0.024868806824088097
			],
			"type":"VEC3"
		},
		{
			"bufferView":26,
			"componentType":5126,
			"count":48,
			"type":"VEC3"
		},
		{
			"bufferView":27,
			"componentType":5126,
			"count":48,
			"type":"VEC2"
		},
		{
			"bufferView":28,
			"componentType":5126,
			"count":48,
			"type":"VEC4"
		},
		{
			"bufferView":29,
			"componentType":5123,
			"count":72,
			"type":"SCALAR"
		},
		{
			"bufferView":30,
			"componentType":5126,
			"count":768,
			"max":[
				0.7217267155647278,
				0.016088014468550682,
				0.7217267155647278
			],
			"min":[
				-0.7217267155647278,
				0,
				-0.7217267155647278
			],
			"type":"VEC3"
		},
		{
			"bufferView":31,
			"componentType":5126,
			"count":768,
			"type":"VEC3"
		},
		{
			"bufferView":32,
			"componentType":5126,
			"count":768,
			"type":"VEC2"
		},
		{
			"bufferView":33,
			"componentType":5126,
			"count":768,
			"type":"VEC4"
		},
		{
			"bufferView":34,
			"componentType":5123,
			"count":1536,
			"type":"SCALAR"
		},
		{
			"bufferView":35,
			"componentType":5126,
			"count":768,
			"max":[
				0.7217267155647278,
				0.7217267155647278,
				0.01608804613351822
			],
			"min":[
				-0.7217267155647278,
				-0.7217267155647278,
				-3.154767824753435e-08
			],
			"type":"VEC3"
		},
		{
			"bufferView":36,
			"componentType":5126,
			"count":768,
			"type":"VEC3"
		},
		{
			"bufferView":37,
			"componentType":5126,
			"count":768,
			"type":"VEC2"
		},
		{
			"bufferView":38,
			"componentType":5126,
			"count":768,
			"type":"VEC4"
		},
		{
			"bufferView":39,
			"componentType":5123,
			"count":1536,
			"type":"SCALAR"
		},
		{
			"bufferView":40,
			"componentType":5126,
			"count":770,
			"max":[
				0.016088059172034264,
				0.7217267155647278,
				0.7217267155647278
			],
			"min":[
				-4.461515246134695e-08,
				-0.7217267155647278,
				-0.7217267155647278
			],
			"type":"VEC3"
		},
		{
			"bufferView":41,
			"componentType":5126,
			"count":770,
			"type":"VEC3"
		},
		{
			"bufferView":42,
			"componentType":5126,
			"count":770,
			"type":"VEC2"
		},
		{
			"bufferView":43,
			"componentType":5126,
			"count":770,
			"type":"VEC4"
		},
		{
			"bufferView":44,
			"componentType":5123,
			"count":1536,
			"type":"SCALAR"
		}
	],
	"bufferViews":[
		{
			"buffer":0,
			"byteLength":3816,
			"byteOffset":0,
			"target":34962
		},
		{
			"buffer":0,
			"byteLength":3816,
			"byteOffset":3816,
			"target":34962
		},
		{
			"buffer":0,
			"byteLength":2544,
			"byteOffset":7632,
			"target":34962
		},
		{
			"buffer":0,
			"byteLength":5088,
			"byteOffset":10176,
			"target":34962
		},
		{
			"buffer":0,
			"byteLength":828,
			"byteOffset":15264,
			"target":34963
		},
		{
			"buffer":0,
			"byteLength":3816,
			"byteOffset":16092,
			"target":34962
		},
		{
			"buffer":0,
			"byteLength":3816,
			"byteOffset":19908,
			"target":34962
		},
		{
			"buffer":0,
			"byteLength":2544,
			"byteOffset":23724,
			"target":34962
		},
		{
			"buffer":0,
			"byteLength":5088,
			"byteOffset":26268,
			"target":34962
		},
		{
			"buffer":0,
			"byteLength":828,
			"byteOffset":31356,
			"target":34963
		},
		{
			"buffer":0,
			"byteLength":3912,
			"byteOffset":32184,
			"target":34962
		},
		{
			"buffer":0,
			"byteLength":3912,
			"byteOffset":36096,
			"target":34962
		},
		{
			"buffer":0,
			"byteLength":2608,
			"byteOffset":40008,
			"target":34962
		},
		{
			"buffer":0,
			"byteLength":5216,
			"byteOffset":42616,
			"target":34962
		},
		{
			"buffer":0,
			"byteLength":828,
			"byteOffset":47832,
			"target":34963
		},
		{
			"buffer":0,
			"byteLength":576,
			"byteOffset":48660,
			"target":34962
		},
		{
			"buffer":0,
			"byteLength":576,
			"byteOffset":49236,
			"target":34962
		},
		{
			"buffer":0,
			"byteLength":384,
			"byteOffset":49812,
			"target":34962
		},
		{
			"buffer":0,
			"byteLength":768,
			"byteOffset":50196,
			"target":34962
		},
		{
			"buffer":0,
			"byteLength":144,
			"byteOffset":50964,
			"target":34963
		},
		{
			"buffer":0,
			"byteLength":576,
			"byteOffset":51108,
			"target":34962
		},
		{
			"buffer":0,
			"byteLength":576,
			"byteOffset":51684,
			"target":34962
		},
		{
			"buffer":0,
			"byteLength":384,
			"byteOffset":52260,
			"target":34962
		},
		{
			"buffer":0,
			"byteLength":768,
			"byteOffset":52644,
			"target":34962
		},
		{
			"buffer":0,
			"byteLength":144,
			"byteOffset":53412,
			"target":34963
		},
		{
			"buffer":0,
			"byteLength":576,
			"byteOffset":53556,
			"target":34962
		},
		{
			"buffer":0,
			"byteLength":576,
			"byteOffset":54132,
			"target":34962
		},
		{
			"buffer":0,
			"byteLength":384,
			"byteOffset":54708,
			"target":34962
		},
		{
			"buffer":0,
			"byteLength":768,
			"byteOffset":55092,
			"target":34962
		},
		{
			"buffer":0,
			"byteLength":144,
			"byteOffset":55860,
			"target":34963
		},
		{
			"buffer":0,
			"byteLength":9216,
			"byteOffset":56004,
			"target":34962
		},
		{
			"buffer":0,
			"byteLength":9216,
			"byteOffset":65220,
			"target":34962
		},
		{
			"buffer":0,
			"byteLength":6144,
			"byteOffset":74436,
			"target":34962
		},
		{
			"buffer":0,
			"byteLength":12288,
			"byteOffset":80580,
			"target":34962
		},
		{
			"buffer":0,
			"byteLength":3072,
			"byteOffset":92868,
			"target":34963
		},
		{
			"buffer":0,
			"byteLength":9216,
			"byteOffset":95940,
			"target":34962
		},
		{
			"buffer":0,
			"byteLength":9216,
			"byteOffset":105156,
			"target":34962
		},
		{
			"buffer":0,
			"byteLength":6144,
			"byteOffset":114372,
			"target":34962
		},
		{
			"buffer":0,
			"byteLength":12288,
			"byteOffset":120516,
			"target":34962
		},
		{
			"buffer":0,
			"byteLength":3072,
			"byteOffset":132804,
			"target":34963
		},
		{
			"buffer":0,
			"byteLength":9240,
			"byteOffset":135876,
			"target":34962
		},
		{
			"buffer":0,
			"byteLength":9240,
			"byteOffset":145116,
			"target":34962
		},
		{
			"buffer":0,
			"byteLength":6160,
			"byteOffset":154356,
			"target":34962
		},
		{
			"buffer":0,
			"byteLength":12320,
			"byteOffset":160516,
			"target":34962
		},
		{
			"buffer":0,
			"byteLength":3072,
			"byteOffset":172836,
			"target":34963
		}
	],
	"buffers":[
		{
			"byteLength":175908,
			"uri":"gizmos.bin"
		}
	]
}
