{
	"asset":{
		"generator":"Khronos glTF Blender I/O v4.5.48",
		"version":"2.0"
	},
	"extensionsUsed":[
		"KHR_texture_transform"
	],
	"extensionsRequired":[
		"KHR_texture_transform"
	],
	"scene":0,
	"scenes":[
		{
			"name":"Scene",
			"nodes":[
				0,
				1,
				2,
				3,
				4,
				5
			]
		}
	],
	"nodes":[
		{
			"name":"door_2"
		},
		{
			"mesh":0,
			"name":"Object_8"
		},
		{
			"mesh":1,
			"name":"lp005_barrel_0",
			"translation":[
				7.444823741912842,
				1.3573282957077026,
				3.5927608013153076
			]
		},
		{
			"mesh":2,
			"name":"rock",
			"translation":[
				-8.866172790527344,
				0.5999669432640076,
				-0.6828945875167847
			]
		},
		{
			"mesh":3,
			"name":"Landscape.006"
		},
		{
			"mesh":4,
			"name":"rock.001",
			"translation":[
				-7.2097272872924805,
				0.212135910987854,
				1.3656134605407715
			]
		}
	],
	"materials":[
		{
			"doubleSided":true,
			"name":"old_house_2",
			"normalTexture":{
				"index":0
			},
			"pbrMetallicRoughness":{
				"baseColorTexture":{
					"index":1
				},
				"metallicRoughnessTexture":{
					"index":2
				}
			}
		},
		{
			"doubleSided":true,
			"name":"old_house_1",
			"normalTexture":{
				"index":3
			},
			"pbrMetallicRoughness":{
				"baseColorTexture":{
					"index":4
				},
				"metallicRoughnessTexture":{
					"index":5
				}
			}
		},
		{
			"doubleSided":true,
			"name":"barrel",
			"normalTexture":{
				"index":6
			},
			"occlusionTexture":{
				"index":7
			},
			"pbrMetallicRoughness":{
				"baseColorTexture":{
					"index":8
				},
				"metallicRoughnessTexture":{
					"index":7
				}
			}
		},
		{
			"doubleSided":true,
			"name":"Rock_01_A",
			"normalTexture":{
				"index":9
			},
			"occlusionTexture":{
				"index":10
			},
			"pbrMetallicRoughness":{
				"baseColorTexture":{
					"index":11
				},
				"metallicRoughnessTexture":{
					"index":10
				}
			}
		},
		{
			"doubleSided":true,
			"name":"Terrain",
			"normalTexture":{
				"extensions":{
					"KHR_texture_transform":{
						"offset":[
							0,
							-15
						],
						"scale":[
							16,
							16
						]
					}
				},
				"index":12
			},
			"occlusionTexture":{
				"index":13
			},
			"pbrMetallicRoughness":{
				"baseColorTexture":{
					"extensions":{
						"KHR_texture_transform":{
							"offset":[
								0,
								-15
							],
							"scale":[
								16,
								16
							]
						}
					},
					"index":14
				},
				"metallicFactor":0
			}
		}
	],
	"meshes":[
		{
			"name":"Object_2",
			"primitives":[
				{
					"attributes":{
						"POSITION":0,
						"NORMAL":1,
						"TEXCOORD_0":2,
						"TEXCOORD_1":3,
						"TEXCOORD_2":4,
						"TEXCOORD_3":5,
						"TANGENT":6
					},
					"indices":7,
					"material":0
				},
				{
					"attributes":{
						"POSITION":8,
						"NORMAL":9,
						"TEXCOORD_0":10,
						"TEXCOORD_1":11,
						"TEXCOORD_2":12,
						"TEXCOORD_3":13,
						"TANGENT":14
					},
					"indices":15,
					"material":1
				}
			]
		},
		{
			"name":"lp005_barrel_0",
			"primitives":[
				{
					"attributes":{
						"POSITION":16,
						"NORMAL":17,
						"TEXCOORD_0":18,
						"TANGENT":19
					},
					"indices":20,
					"material":2
				}
			]
		},
		{
			"name":"defaultMaterial",
			"primitives":[
				{
					"attributes":{
						"POSITION":21,
						"NORMAL":22,
						"TEXCOORD_0":23,
						"TANGENT":24
					},
					"indices":25,
					"material":3
				}
			]
		},
		{
			"name":"Landscape.006",
			"primitives":[
				{
					"attributes":{
						"POSITION":26,
						"NORMAL":27,
						"TEXCOORD_0":28,
						"TANGENT":29
					},
					"indices":30,
					"material":4
				}
			]
		},
		{
			"name":"defaultMaterial.002",
			"primitives":[
				{
					"attributes":{
						"POSITION":31,
						"NORMAL":32,
						"TEXCOORD_0":33,
						"TANGENT":34
					},
					"indices":25,
					"material":3
				}
			]
		}
	],
	"textures":[
		{
			"sampler":0,
			"source":0
		},
		{
			"sampler":0,
			"source":1
		},
		{
			"sampler":0,
			"source":2
		},
		{
			"sampler":0,
			"source":3
		},
		{
			"sampler":0,
			"source":4
		},
		{
			"sampler":0,
			"source":5
		},
		{
			"sampler":0,
			"source":6
		},
		{
			"sampler":0,
			"source":7
		},
		{
			"sampler":0,
			"source":8
		},
		{
			"sampler":0,
			"source":9
		},
		{
			"sampler":0,
			"source":10
		},
		{
			"sampler":0,
			"source":11
		},
		{
			"sampler":0,
			"source":12
		},
		{
			"sampler":0,
			"source":13
		},
		{
			"sampler":0,
			"source":14
		}
	],
	"images":[
		{
			"mimeType":"image/png",
			"name":"old_house_2_normal",
			"uri":"old_house_2_normal.png"
		},
		{
			"mimeType":"image/png",
			"name":"old_house_2_baseColor",
			"uri":"old_house_2_baseColor.png"
		},
		{
			"mimeType":"image/png",
			"name":"old_house_2_metallicRoughness",
			"uri":"old_house_2_metallicRoughness.png"
		},
		{
			"mimeType":"image/png",
			"name":"old_house_1_normal",
			"uri":"old_house_1_normal.png"
		},
		{
			"mimeType":"image/png",
			"name":"old_house_1_baseColor",
			"uri":"old_house_1_baseColor.png"
		},
		{
			"mimeType":"image/png",
			"name":"old_house_1_metallicRoughness",
			"uri":"old_house_1_metallicRoughness.png"
		},
		{
			"mimeType":"image/png",
			"name":"barrel_normal",
			"uri":"barrel_normal.png"
		},
		{
			"mimeType":"image/png",
			"name":"barrel_metallicRoughness",
			"uri":"barrel_metallicRoughness.png"
		},
		{
			"mimeType":"image/png",
			"name":"barrel_baseColor",
			"uri":"barrel_baseColor.png"
		},
		{
			"mimeType":"image/png",
			"name":"Rock_01_A_normal",
			"uri":"Rock_01_A_normal.png"
		},
		{
			"mimeType":"image/png",
			"name":"Rock_01_A_metallicRoughness",
			"uri":"Rock_01_A_metallicRoughness.png"
		},
		{
			"mimeType":"image/jpeg",
			"name":"Rock_01_A_baseColor",
			"uri":"Rock_01_A_baseColor.jpg"
		},
		{
			"mimeType":"image/jpeg",
			"name":"Ground068_1K-JPG_NormalGL",
			"uri":"Ground068_1K-JPG_NormalGL.jpg"
		},
		{
			"mimeType":"image/jpeg",
			"name":"Ground068_1K-JPG_AmbientOcclusion",
			"uri":"Ground068_1K-JPG_AmbientOcclusion.jpg"
		},
		{
			"mimeType":"image/jpeg",
			"name":"Ground068_1K-JPG_Color",
			"uri":"Ground068_1K-JPG_Color.jpg"
		}
	],
	"accessors":[
		{
			"bufferView":0,
			"componentType":5126,
			"count":2162,
			"max":[
				5.203640937805176,
				7.684267997741699,
				4.469724655151367
			],
			"min":[
				-4.77372932434082,
				-0.07471990585327148,
				-4.391490936279297
			],
			"type":"VEC3"
		},
		{
			"bufferView":1,
			"componentType":5126,
			"count":2162,
			"type":"VEC3"
		},
		{
			"bufferView":2,
			"componentType":5126,
			"count":2162,
			"type":"VEC2"
		},
		{
			"bufferView":3,
			"componentType":5126,
			"count":2162,
			"type":"VEC2"
		},
		{
			"bufferView":4,
			"componentType":5126,
			"count":2162,
			"type":"VEC2"
		},
		{
			"bufferView":5,
			"componentType":5126,
			"count":2162,
			"type":"VEC2"
		},
		{
			"bufferView":6,
			"componentType":5126,
			"count":2162,
			"type":"VEC4"
		},
		{
			"bufferView":7,
			"componentType":5123,
			"count":2952,
			"type":"SCALAR"
		},
		{
			"bufferView":8,
			"componentType":5126,
			"count":1296,
			"max":[
				4.599276542663574,
				5.938457012176514,
				4.214807510375977
			],
			"min":[
				-4.54815149307251,
				-0.07045555114746094,
				-3.9900851249694824
			],
			"type":"VEC3"
		},
		{
			"bufferView":9,
			"componentType":5126,
			"count":1296,
			"type":"VEC3"
		},
		{
			"bufferView":10,
			"componentType":5126,
			"count":1296,
			"type":"VEC2"
		},
		{
			"bufferView":11,
			"componentType":5126,
			"count":1296,
			"type":"VEC2"
		},
		{
			"bufferView":12,
			"componentType":5126,
			"count":1296,
			"type":"VEC2"
		},
		{
			"bufferView":13,
			"componentType":5126,
			"count":1296,
			"type":"VEC2"
		},
		{
			"bufferView":14,
			"componentType":5126,
			"count":1296,
			"type":"VEC4"
		},
		{
			"bufferView":15,
			"componentType":5123,
			"count":1944,
			"type":"SCALAR"
		},
		{
			"bufferView":16,
			"componentType":5126,
			"count":3247,
			"max":[
				0.8585867881774902,
				1.1031707525253296,
				0.8633420467376709
			],
			"min":[
				-0.8526301383972168,
				-1.1189193725585938,
				-0.8478748798370361
			],
			"type":"VEC3"
		},
		{
			"bufferView":17,
			"componentType":5126,
			"count":3247,
			"type":"VEC3"
		},
		{
			"bufferView":18,
			"componentType":5126,
			"count":3247,
			"type":"VEC2"
		},
		{
			"bufferView":19,
			"componentType":5126,
			"count":3247,
			"type":"VEC4"
		},
		{
			"bufferView":20,
			"componentType":5123,
			"count":6186,
			"type":"SCALAR"
		},
		{
			"bufferView":21,
			"componentType":5126,
			"count":2125,
			"max":[
				1.6241693496704102,
				2.0589723587036133,
				1.9048556089401245
			],
			"min":[
				-1.7374353408813477,
				-1.7612216472625732,
				-1.9113463163375854
			],
			"type":"VEC3"
		},
		{
			"bufferView":22,
			"componentType":5126,
			"count":2125,
			"type":"VEC3"
		},
		{
			"bufferView":23,
			"componentType":5126,
			"count":2125,
			"type":"VEC2"
		},
		{
			"bufferView":24,
			"componentType":5126,
			"count":2125,
			"type":"VEC4"
		},
		{
			"bufferView":25,
			"componentType":5123,
			"count":11586,
			"type":"SCALAR"
		},
		{
			"bufferView":26,
			"componentType":5126,
			"count":16384,
			"max":[
				64,
				0.3492247760295868,
				64
			],
			"min":[
				-64,
				0.011575058102607727,
				-64
			],
			"type":"VEC3"
		},
		{
			"bufferView":27,
			"componentType":5126,
			"count":16384,
			"type":"VEC3"
		},
		{
			"bufferView":28,
			"componentType":5126,
			"count":16384,
			"type":"VEC2"
		},
		{
			"bufferView":29,
			"componentType":5126,
			"count":16384,
			"type":"VEC4"
		},
		{
			"bufferView":30,
			"componentType":5123,
			"count":96774,
			"type":"SCALAR"
		},
		{
			"bufferView":31,
			"componentType":5126,
			"count":2125,
			"max":[
				1.35481595993042,
				1.4079965353012085,
				1.298069953918457
			],
			"min":[
				-1.2979717254638672,
				-1.4434013366699219,
				-1.6671587228775024
			],
			"type":"VEC3"
		},
		{
			"bufferView":32,
			"componentType":5126,
			"count":2125,
			"type":"VEC3"
		},
		{
			"bufferView":33,
			"componentType":5126,
			"count":2125,
			"type":"VEC2"
		},
		{
			"bufferView":34,
			"componentType":5126,
			"count":2125,
			"type":"VEC4"
		}
	],
	"bufferViews":[
		{
			"buffer":0,
			"byteLength":25944,
			"byteOffset":0,
			"target":34962
		},
		{
			"buffer":0,
			"byteLength":25944,
			"byteOffset":25944,
			"target":34962
		},
		{
			"buffer":0,
			"byteLength":17296,
			"byteOffset":51888,
			"target":34962
		},
		{
			"buffer":0,
			"byteLength":17296,
			"byteOffset":69184,
			"target":34962
		},
		{
			"buffer":0,
			"byteLength":17296,
			"byteOffset":86480,
			"target":34962
		},
		{
			"buffer":0,
			"byteLength":17296,
			"byteOffset":103776,
			"target":34962
		},
		{
			"buffer":0,
			"byteLength":34592,
			"byteOffset":121072,
			"target":34962
		},
		{
			"buffer":0,
			"byteLength":5904,
			"byteOffset":155664,
			"target":34963
		},
		{
			"buffer":0,
			"byteLength":15552,
			"byteOffset":161568,
			"target":34962
		},
		{
			"buffer":0,
			"byteLength":15552,
			"byteOffset":177120,
			"target":34962
		},
		{
			"buffer":0,
			"byteLength":10368,
			"byteOffset":192672,
			"target":34962
		},
		{
			"buffer":0,
			"byteLength":10368,
			"byteOffset":203040,
			"target":34962
		},
		{
			"buffer":0,
			"byteLength":10368,
			"byteOffset":213408,
			"target":34962
		},
		{
			"buffer":0,
			"byteLength":10368,
			"byteOffset":223776,
			"target":34962
		},
		{
			"buffer":0,
			"byteLength":20736,
			"byteOffset":234144,
			"target":34962
		},
		{
			"buffer":0,
			"byteLength":3888,
			"byteOffset":254880,
			"target":34963
		},
		{
			"buffer":0,
			"byteLength":38964,
			"byteOffset":258768,
			"target":34962
		},
		{
			"buffer":0,
			"byteLength":38964,
			"byteOffset":297732,
			"target":34962
		},
		{
			"buffer":0,
			"byteLength":25976,
			"byteOffset":336696,
			"target":34962
		},
		{
			"buffer":0,
			"byteLength":51952,
			"byteOffset":362672,
			"target":34962
		},
		{
			"buffer":0,
			"byteLength":12372,
			"byteOffset":414624,
			"target":34963
		},
		{
			"buffer":0,
			"byteLength":25500,
			"byteOffset":426996,
			"target":34962
		},
		{
			"buffer":0,
			"byteLength":25500,
			"byteOffset":452496,
			"target":34962
		},
		{
			"buffer":0,
			"byteLength":17000,
			"byteOffset":477996,
			"target":34962
		},
		{
			"buffer":0,
			"byteLength":34000,
			"byteOffset":494996,
			"target":34962
		},
		{
			"buffer":0,
			"byteLength":23172,
			"byteOffset":528996,
			"target":34963
		},
		{
			"buffer":0,
			"byteLength":196608,
			"byteOffset":552168,
			"target":34962
		},
		{
			"buffer":0,
			"byteLength":196608,
			"byteOffset":748776,
			"target":34962
		},
		{
			"buffer":0,
			"byteLength":131072,
			"byteOffset":945384,
			"target":34962
		},
		{
			"buffer":0,
			"byteLength":262144,
			"byteOffset":1076456,
			"target":34962
		},
		{
			"buffer":0,
			"byteLength":193548,
			"byteOffset":1338600,
			"target":34963
		},
		{
			"buffer":0,
			"byteLength":25500,
			"byteOffset":1532148,
			"target":34962
		},
		{
			"buffer":0,
			"byteLength":25500,
			"byteOffset":1557648,
			"target":34962
		},
		{
			"buffer":0,
			"byteLength":17000,
			"byteOffset":1583148,
			"target":34962
		},
		{
			"buffer":0,
			"byteLength":34000,
			"byteOffset":1600148,
			"target":34962
		}
	],
	"samplers":[
		{
			"magFilter":9729,
			"minFilter":9987
		}
	],
	"buffers":[
		{
			"byteLength":1634148,
			"uri":"map.bin"
		}
	]
}
