{
	"asset":{
		"generator":"Khronos glTF Blender I/O v4.5.48",
		"version":"2.0"
	},
	"extensionsUsed":[
		"KHR_texture_transform",
		"KHR_lights_punctual"
	],
	"extensionsRequired":[
		"KHR_texture_transform",
		"KHR_lights_punctual"
	],
	"extensions":{
		"KHR_lights_punctual":{
			"lights":[
				{
					"color":[
						1,
						1,
						1
					],
					"intensity":3415,
					"type":"directional",
					"name":"Sun"
				}
			]
		}
	},
	"scene":0,
	"scenes":[
		{
			"name":"Scene",
			"nodes":[
				0,
				2,
				3,
				4,
				5,
				6,
				7,
				11,
				12,
				13
			]
		}
	],
	"nodes":[
		{
			"mesh":0,
			"name":"Plane",
			"scale":[
				256,
				256,
				256
			]
		},
		{
			"mesh":1,
			"name":"Suzanne",
			"scale":[
				0.4915589392185211,
				0.4915589392185211,
				0.4915589392185211
			],
			"translation":[
				0,
				-0.0628957748413086,
				0.4270210266113281
			]
		},
		{
			"children":[
				1
			],
			"mesh":2,
			"name":"Cube",
			"translation":[
				0,
				1.1595330238342285,
				0
			]
		},
		{
			"extensions":{
				"KHR_lights_punctual":{
					"light":0
				}
			},
			"name":"Sun",
			"rotation":[
				-0.9358253479003906,
				-0.018605997785925865,
				0.04906506463885307,
				0.34853601455688477
			],
			"scale":[
				0.6661596894264221,
				0.6661596298217773,
				0.6661596298217773
			],
			"translation":[
				-0.3984586000442505,
				4.215418338775635,
				-2.693404197692871
			]
		},
		{
			"mesh":3,
			"name":"Cube.001",
			"scale":[
				0.5,
				2,
				0.5
			],
			"translation":[
				6.50029993057251,
				1.9639015197753906,
				1.4564416408538818
			]
		},
		{
			"mesh":4,
			"name":"Cone",
			"translation":[
				-6.656060218811035,
				0.9934462308883667,
				-2.516151189804077
			]
		},
		{
			"mesh":5,
			"name":"Cube.002",
			"scale":[
				4,
				1.399999976158142,
				0.5
			],
			"translation":[
				0.6568679809570312,
				1.3768982887268066,
				9.3059663772583
			]
		},
		{
			"mesh":6,
			"name":"Cube.003",
			"rotation":[
				0,
				0,
				-1,
				7.549790126404332e-08
			],
			"scale":[
				2.1645889282226562,
				1.661454200744629,
				0.2724432945251465
			],
			"translation":[
				-0.5237793922424316,
				1.6294772624969482,
				-7.494353294372559
			]
		},
		{
			"mesh":7,
			"name":"Cube.005",
			"rotation":[
				0,
				0,
				-0.7071065902709961,
				0.7071069478988647
			],
			"scale":[
				0.060319896787405014,
				7.908501148223877,
				0.6261193752288818
			],
			"translation":[
				8.736100196838379,
				0.7536364197731018,
				0
			]
		},
		{
			"mesh":8,
			"name":"Cube.006",
			"rotation":[
				0,
				0,
				-0.7071065902709961,
				0.7071069478988647
			],
			"scale":[
				0.060319896787405014,
				7.908501148223877,
				0.6261193752288818
			],
			"translation":[
				8.736101150512695,
				0.5699867606163025,
				0
			]
		},
		{
			"mesh":9,
			"name":"Cube.007",
			"rotation":[
				0,
				0,
				-0.7071065902709961,
				0.7071069478988647
			],
			"scale":[
				0.060319896787405014,
				7.908501148223877,
				0.6261193752288818
			],
			"translation":[
				8.736101150512695,
				0.3891335725784302,
				0
			]
		},
		{
			"children":[
				8,
				9,
				10
			],
			"mesh":10,
			"name":"Cube.004",
			"rotation":[
				0.027567800134420395,
				-0.1876961886882782,
				-0.1426766812801361,
				0.9714183211326599
			],
			"scale":[
				0.11602383852005005,
				2.784572124481201,
				0.11602383106946945
			],
			"translation":[
				-7.111746311187744,
				2.773085832595825,
				1.4564416408538818
			]
		},
		{
			"mesh":11,
			"name":"ConeByWall",
			"translation":[
				-0.871484100818634,
				1.8211156129837036,
				7.239675521850586
			]
		},
		{
			"mesh":12,
			"name":"ConeByWall.001",
			"scale":[
				0.46197593212127686,
				0.46197593212127686,
				0.46197593212127686
			],
			"translation":[
				-0.871484100818634,
				1.8211156129837036,
				-6.050562858581543
			]
		}
	],
	"materials":[
		{
			"name":"GroundPlane",
			"normalTexture":{
				"extensions":{
					"KHR_texture_transform":{
						"offset":[
							0,
							-47
						],
						"scale":[
							48,
							48
						]
					}
				},
				"index":0
			},
			"occlusionTexture":{
				"extensions":{
					"KHR_texture_transform":{
						"offset":[
							0,
							-47
						],
						"scale":[
							48,
							48
						]
					}
				},
				"index":1
			},
			"pbrMetallicRoughness":{
				"baseColorTexture":{
					"extensions":{
						"KHR_texture_transform":{
							"offset":[
								0,
								-47
							],
							"scale":[
								48,
								48
							]
						}
					},
					"index":2
				},
				"metallicFactor":0,
				"metallicRoughnessTexture":{
					"extensions":{
						"KHR_texture_transform":{
							"offset":[
								0,
								-47
							],
							"scale":[
								48,
								48
							]
						}
					},
					"index":1
				}
			}
		},
		{
			"name":"Monkey",
			"pbrMetallicRoughness":{
				"baseColorFactor":[
					0.8010635375976562,
					0.5113402605056763,
					0.04115413501858711,
					1
				],
				"metallicFactor":0.8636363744735718,
				"roughnessFactor":0.13181817531585693
			}
		},
		{
			"name":"Cube",
			"pbrMetallicRoughness":{
				"baseColorFactor":[
					0.31071481108665466,
					0.14251963794231415,
					0.8005914688110352,
					1
				],
				"metallicFactor":0,
				"roughnessFactor":0.5
			}
		},
		{
			"name":"Metal",
			"normalTexture":{
				"index":3
			},
			"pbrMetallicRoughness":{
				"baseColorTexture":{
					"index":4
				},
				"metallicRoughnessTexture":{
					"index":5
				}
			}
		},
		{
			"name":"Wall2",
			"normalTexture":{
				"extensions":{
					"KHR_texture_transform":{
						"offset":[
							0,
							-1
						],
						"scale":[
							8,
							2
						]
					}
				},
				"index":6
			},
			"occlusionTexture":{
				"extensions":{
					"KHR_texture_transform":{
						"offset":[
							0,
							-1
						],
						"scale":[
							8,
							2
						]
					}
				},
				"index":7
			},
			"pbrMetallicRoughness":{
				"baseColorTexture":{
					"extensions":{
						"KHR_texture_transform":{
							"offset":[
								0,
								-1
							],
							"scale":[
								8,
								2
							]
						}
					},
					"index":8
				},
				"metallicFactor":0,
				"metallicRoughnessTexture":{
					"extensions":{
						"KHR_texture_transform":{
							"offset":[
								0,
								-1
							],
							"scale":[
								8,
								2
							]
						}
					},
					"index":7
				}
			}
		},
		{
			"name":"Wall",
			"normalTexture":{
				"extensions":{
					"KHR_texture_transform":{
						"offset":[
							0,
							-3
						],
						"scale":[
							4,
							4
						]
					}
				},
				"index":9
			},
			"occlusionTexture":{
				"extensions":{
					"KHR_texture_transform":{
						"offset":[
							0,
							-3
						],
						"scale":[
							4,
							4
						]
					}
				},
				"index":10
			},
			"pbrMetallicRoughness":{
				"baseColorTexture":{
					"extensions":{
						"KHR_texture_transform":{
							"offset":[
								0,
								-3
							],
							"scale":[
								4,
								4
							]
						}
					},
					"index":11
				},
				"metallicFactor":0,
				"metallicRoughnessTexture":{
					"extensions":{
						"KHR_texture_transform":{
							"offset":[
								0,
								-3
							],
							"scale":[
								4,
								4
							]
						}
					},
					"index":10
				}
			}
		},
		{
			"doubleSided":true,
			"name":"Wood",
			"normalTexture":{
				"index":12
			},
			"occlusionTexture":{
				"index":13
			},
			"pbrMetallicRoughness":{
				"baseColorTexture":{
					"index":14
				},
				"metallicFactor":0,
				"metallicRoughnessTexture":{
					"index":13
				}
			}
		},
		{
			"name":"Wood2",
			"normalTexture":{
				"extensions":{
					"KHR_texture_transform":{
						"offset":[
							0,
							-7
						],
						"scale":[
							1,
							8
						]
					}
				},
				"index":15
			},
			"occlusionTexture":{
				"extensions":{
					"KHR_texture_transform":{
						"offset":[
							0,
							-7
						],
						"scale":[
							1,
							8
						]
					}
				},
				"index":16
			},
			"pbrMetallicRoughness":{
				"baseColorTexture":{
					"extensions":{
						"KHR_texture_transform":{
							"offset":[
								0,
								-7
							],
							"scale":[
								1,
								8
							]
						}
					},
					"index":17
				},
				"metallicFactor":0,
				"metallicRoughnessTexture":{
					"extensions":{
						"KHR_texture_transform":{
							"offset":[
								0,
								-7
							],
							"scale":[
								1,
								8
							]
						}
					},
					"index":16
				}
			}
		}
	],
	"meshes":[
		{
			"name":"Plane.001",
			"primitives":[
				{
					"attributes":{
						"POSITION":0,
						"NORMAL":1,
						"TEXCOORD_0":2,
						"TANGENT":3
					},
					"indices":4,
					"material":0
				}
			]
		},
		{
			"name":"Suzanne.001",
			"primitives":[
				{
					"attributes":{
						"POSITION":5,
						"NORMAL":6,
						"TEXCOORD_0":7,
						"TANGENT":8
					},
					"indices":9,
					"material":1
				}
			]
		},
		{
			"name":"Cube.002",
			"primitives":[
				{
					"attributes":{
						"POSITION":10,
						"NORMAL":11,
						"TEXCOORD_0":12,
						"TANGENT":13
					},
					"indices":14,
					"material":2
				}
			]
		},
		{
			"name":"Cube",
			"primitives":[
				{
					"attributes":{
						"POSITION":15,
						"NORMAL":16,
						"TEXCOORD_0":17,
						"TANGENT":18
					},
					"indices":14,
					"material":3
				}
			]
		},
		{
			"name":"Cone",
			"primitives":[
				{
					"attributes":{
						"POSITION":19,
						"NORMAL":20,
						"TEXCOORD_0":21,
						"TANGENT":22
					},
					"indices":23,
					"material":3
				}
			]
		},
		{
			"name":"Cube.001",
			"primitives":[
				{
					"attributes":{
						"POSITION":24,
						"NORMAL":25,
						"TEXCOORD_0":26,
						"TANGENT":27
					},
					"indices":14,
					"material":4
				}
			]
		},
		{
			"name":"Cube.003",
			"primitives":[
				{
					"attributes":{
						"POSITION":28,
						"NORMAL":29,
						"TEXCOORD_0":30,
						"TANGENT":31
					},
					"indices":14,
					"material":5
				}
			]
		},
		{
			"name":"Cube.005",
			"primitives":[
				{
					"attributes":{
						"POSITION":32,
						"NORMAL":33,
						"TEXCOORD_0":34,
						"TANGENT":35
					},
					"indices":14,
					"material":6
				}
			]
		},
		{
			"name":"Cube.006",
			"primitives":[
				{
					"attributes":{
						"POSITION":36,
						"NORMAL":37,
						"TEXCOORD_0":38,
						"TANGENT":39
					},
					"indices":14,
					"material":6
				}
			]
		},
		{
			"name":"Cube.007",
			"primitives":[
				{
					"attributes":{
						"POSITION":40,
						"NORMAL":41,
						"TEXCOORD_0":42,
						"TANGENT":43
					},
					"indices":14,
					"material":6
				}
			]
		},
		{
			"name":"Cube.004",
			"primitives":[
				{
					"attributes":{
						"POSITION":44,
						"NORMAL":45,
						"TEXCOORD_0":46,
						"TANGENT":47
					},
					"indices":14,
					"material":7
				}
			]
		},
		{
			"name":"Cone.001",
			"primitives":[
				{
					"attributes":{
						"POSITION":48,
						"NORMAL":49,
						"TEXCOORD_0":50,
						"TANGENT":51
					},
					"indices":23,
					"material":3
				}
			]
		},
		{
			"name":"Cone.002",
			"primitives":[
				{
					"attributes":{
						"POSITION":52,
						"NORMAL":53,
						"TEXCOORD_0":54,
						"TANGENT":55
					},
					"indices":23,
					"material":3
				}
			]
		}
	],
	"textures":[
		{
			"sampler":0,
			"source":0
		},
		{
			"sampler":0,
			"source":1
		},
		{
			"sampler":0,
			"source":2
		},
		{
			"sampler":0,
			"source":3
		},
		{
			"sampler":0,
			"source":4
		},
		{
			"sampler":0,
			"source":5
		},
		{
			"sampler":0,
			"source":0
		},
		{
			"sampler":0,
			"source":1
		},
		{
			"sampler":0,
			"source":6
		},
		{
			"sampler":0,
			"source":0
		},
		{
			"sampler":0,
			"source":1
		},
		{
			"sampler":0,
			"source":6
		},
		{
			"sampler":0,
			"source":7
		},
		{
			"sampler":0,
			"source":8
		},
		{
			"sampler":0,
			"source":9
		},
		{
			"sampler":0,
			"source":7
		},
		{
			"sampler":0,
			"source":8
		},
		{
			"sampler":0,
			"source":9
		}
	],
	"images":[
		{
			"mimeType":"image/jpeg",
			"name":"Concrete044D_1K-JPG_NormalGL",
			"uri":"Concrete044D_1K-JPG_NormalGL.jpg"
		},
		{
			"mimeType":"image/png",
			"name":"Concrete044D_1K-JPG_AmbientOcclusion-Concrete044D_1K-JPG_Roughness",
			"uri":"Concrete044D_1K-JPG_AmbientOcclusion-Concrete044D_1K-JPG_Roughness.png"
		},
		{
			"mimeType":"image/jpeg",
			"name":"Concrete044D_1K-JPG_Color",
			"uri":"Concrete044D_1K-JPG_Color.jpg"
		},
		{
			"mimeType":"image/jpeg",
			"name":"Metal057A_1K-JPG_NormalGL",
			"uri":"Metal057A_1K-JPG_NormalGL.jpg"
		},
		{
			"mimeType":"image/jpeg",
			"name":"Metal057A_1K-JPG_Color",
			"uri":"Metal057A_1K-JPG_Color.jpg"
		},
		{
			"mimeType":"image/png",
			"name":"Metal057A_1K-JPG_Metalness-Metal057A_1K-JPG_Roughness",
			"uri":"Metal057A_1K-JPG_Metalness-Metal057A_1K-JPG_Roughness.png"
		},
		{
			"mimeType":"image/jpeg",
			"name":"Bricks066_1K-JPG_Color",
			"uri":"Bricks066_1K-JPG_Color.jpg"
		},
		{
			"mimeType":"image/jpeg",
			"name":"PaintedWood007B_1K-JPG_NormalGL",
			"uri":"PaintedWood007B_1K-JPG_NormalGL.jpg"
		},
		{
			"mimeType":"image/png",
			"name":"PaintedWood007B_1K-JPG_AmbientOcclusion-PaintedWood007B_1K-JPG_Roughness",
			"uri":"PaintedWood007B_1K-JPG_AmbientOcclusion-PaintedWood007B_1K-JPG_Roughness.png"
		},
		{
			"mimeType":"image/jpeg",
			"name":"PaintedWood007B_1K-JPG_Color",
			"uri":"PaintedWood007B_1K-JPG_Color.jpg"
		}
	],
	"accessors":[
		{
			"bufferView":0,
			"componentType":5126,
			"count":4,
			"max":[
				1,
				0,
				1
			],
			"min":[
				-1,
				0,
				-1
			],
			"type":"VEC3"
		},
		{
			"bufferView":1,
			"componentType":5126,
			"count":4,
			"type":"VEC3"
		},
		{
			"bufferView":2,
			"componentType":5126,
			"count":4,
			"type":"VEC2"
		},
		{
			"bufferView":3,
			"componentType":5126,
			"count":4,
			"type":"VEC4"
		},
		{
			"bufferView":4,
			"componentType":5123,
			"count":6,
			"type":"SCALAR"
		},
		{
			"bufferView":5,
			"componentType":5126,
			"count":1966,
			"max":[
				1.3671875,
				0.984375,
				0.8515625
			],
			"min":[
				-1.3671875,
				-0.984375,
				-0.8515625
			],
			"type":"VEC3"
		},
		{
			"bufferView":6,
			"componentType":5126,
			"count":1966,
			"type":"VEC3"
		},
		{
			"bufferView":7,
			"componentType":5126,
			"count":1966,
			"type":"VEC2"
		},
		{
			"bufferView":8,
			"componentType":5126,
			"count":1966,
			"type":"VEC4"
		},
		{
			"bufferView":9,
			"componentType":5123,
			"count":2904,
			"type":"SCALAR"
		},
		{
			"bufferView":10,
			"componentType":5126,
			"count":24,
			"max":[
				0.5,
				0.5,
				0.5
			],
			"min":[
				-0.5,
				-0.5,
				-0.5
			],
			"type":"VEC3"
		},
		{
			"bufferView":11,
			"componentType":5126,
			"count":24,
			"type":"VEC3"
		},
		{
			"bufferView":12,
			"componentType":5126,
			"count":24,
			"type":"VEC2"
		},
		{
			"bufferView":13,
			"componentType":5126,
			"count":24,
			"type":"VEC4"
		},
		{
			"bufferView":14,
			"componentType":5123,
			"count":36,
			"type":"SCALAR"
		},
		{
			"bufferView":15,
			"componentType":5126,
			"count":24,
			"max":[
				1,
				1,
				1
			],
			"min":[
				-1,
				-1,
				-1
			],
			"type":"VEC3"
		},
		{
			"bufferView":16,
			"componentType":5126,
			"count":24,
			"type":"VEC3"
		},
		{
			"bufferView":17,
			"componentType":5126,
			"count":24,
			"type":"VEC2"
		},
		{
			"bufferView":18,
			"componentType":5126,
			"count":24,
			"type":"VEC4"
		},
		{
			"bufferView":19,
			"componentType":5126,
			"count":60,
			"max":[
				1,
				1,
				1
			],
			"min":[
				-1,
				-1,
				-1
			],
			"type":"VEC3"
		},
		{
			"bufferView":20,
			"componentType":5126,
			"count":60,
			"type":"VEC3"
		},
		{
			"bufferView":21,
			"componentType":5126,
			"count":60,
			"type":"VEC2"
		},
		{
			"bufferView":22,
			"componentType":5126,
			"count":60,
			"type":"VEC4"
		},
		{
			"bufferView":23,
			"componentType":5123,
			"count":186,
			"type":"SCALAR"
		},
		{
			"bufferView":24,
			"componentType":5126,
			"count":24,
			"max":[
				1,
				1,
				1
			],
			"min":[
				-1,
				-1,
				-1
			],
			"type":"VEC3"
		},
		{
			"bufferView":25,
			"componentType":5126,
			"count":24,
			"type":"VEC3"
		},
		{
			"bufferView":26,
			"componentType":5126,
			"count":24,
			"type":"VEC2"
		},
		{
			"bufferView":27,
			"componentType":5126,
			"count":24,
			"type":"VEC4"
		},
		{
			"bufferView":28,
			"componentType":5126,
			"count":24,
			"max":[
				1,
				1,
				1
			],
			"min":[
				-1,
				-1,
				-1
			],
			"type":"VEC3"
		},
		{
			"bufferView":29,
			"componentType":5126,
			"count":24,
			"type":"VEC3"
		},
		{
			"bufferView":30,
			"componentType":5126,
			"count":24,
			"type":"VEC2"
		},
		{
			"bufferView":31,
			"componentType":5126,
			"count":24,
			"type":"VEC4"
		},
		{
			"bufferView":32,
			"componentType":5126,
			"count":24,
			"max":[
				1,
				1,
				1
			],
			"min":[
				-1,
				-1,
				-1
			],
			"type":"VEC3"
		},
		{
			"bufferView":33,
			"componentType":5126,
			"count":24,
			"type":"VEC3"
		},
		{
			"bufferView":34,
			"componentType":5126,
			"count":24,
			"type":"VEC2"
		},
		{
			"bufferView":35,
			"componentType":5126,
			"count":24,
			"type":"VEC4"
		},
		{
			"bufferView":36,
			"componentType":5126,
			"count":24,
			"max":[
				1,
				1,
				1
			],
			"min":[
				-1,
				-1,
				-1
			],
			"type":"VEC3"
		},
		{
			"bufferView":37,
			"componentType":5126,
			"count":24,
			"type":"VEC3"
		},
		{
			"bufferView":38,
			"componentType":5126,
			"count":24,
			"type":"VEC2"
		},
		{
			"bufferView":39,
			"componentType":5126,
			"count":24,
			"type":"VEC4"
		},
		{
			"bufferView":40,
			"componentType":5126,
			"count":24,
			"max":[
				1,
				1,
				1
			],
			"min":[
				-1,
				-1,
				-1
			],
			"type":"VEC3"
		},
		{
			"bufferView":41,
			"componentType":5126,
			"count":24,
			"type":"VEC3"
		},
		{
			"bufferView":42,
			"componentType":5126,
			"count":24,
			"type":"VEC2"
		},
		{
			"bufferView":43,
			"componentType":5126,
			"count":24,
			"type":"VEC4"
		},
		{
			"bufferView":44,
			"componentType":5126,
			"count":24,
			"max":[
				1,
				1,
				1
			],
			"min":[
				-1,
				-1,
				-1
			],
			"type":"VEC3"
		},
		{
			"bufferView":45,
			"componentType":5126,
			"count":24,
			"type":"VEC3"
		},
		{
			"bufferView":46,
			"componentType":5126,
			"count":24,
			"type":"VEC2"
		},
		{
			"bufferView":47,
			"componentType":5126,
			"count":24,
			"type":"VEC4"
		},
		{
			"bufferView":48,
			"componentType":5126,
			"count":60,
			"max":[
				1,
				1,
				1
			],
			"min":[
				-1,
				-1,
				-1
			],
			"type":"VEC3"
		},
		{
			"bufferView":49,
			"componentType":5126,
			"count":60,
			"type":"VEC3"
		},
		{
			"bufferView":50,
			"componentType":5126,
			"count":60,
			"type":"VEC2"
		},
		{
			"bufferView":51,
			"componentType":5126,
			"count":60,
			"type":"VEC4"
		},
		{
			"bufferView":52,
			"componentType":5126,
			"count":60,
			"max":[
				1,
				1,
				1
			],
			"min":[
				-1,
				-1,
				-1
			],
			"type":"VEC3"
		},
		{
			"bufferView":53,
			"componentType":5126,
			"count":60,
			"type":"VEC3"
		},
		{
			"bufferView":54,
			"componentType":5126,
			"count":60,
			"type":"VEC2"
		},
		{
			"bufferView":55,
			"componentType":5126,
			"count":60,
			"type":"VEC4"
		}
	],
	"bufferViews":[
		{
			"buffer":0,
			"byteLength":48,
			"byteOffset":0,
			"target":34962
		},
		{
			"buffer":0,
			"byteLength":48,
			"byteOffset":48,
			"target":34962
		},
		{
			"buffer":0,
			"byteLength":32,
			"byteOffset":96,
			"target":34962
		},
		{
			"buffer":0,
			"byteLength":64,
			"byteOffset":128,
			"target":34962
		},
		{
			"buffer":0,
			"byteLength":12,
			"byteOffset":192,
			"target":34963
		},
		{
			"buffer":0,
			"byteLength":23592,
			"byteOffset":204,
			"target":34962
		},
		{
			"buffer":0,
			"byteLength":23592,
			"byteOffset":23796,
			"target":34962
		},
		{
			"buffer":0,
			"byteLength":15728,
			"byteOffset":47388,
			"target":34962
		},
		{
			"buffer":0,
			"byteLength":31456,
			"byteOffset":63116,
			"target":34962
		},
		{
			"buffer":0,
			"byteLength":5808,
			"byteOffset":94572,
			"target":34963
		},
		{
			"buffer":0,
			"byteLength":288,
			"byteOffset":100380,
			"target":34962
		},
		{
			"buffer":0,
			"byteLength":288,
			"byteOffset":100668,
			"target":34962
		},
		{
			"buffer":0,
			"byteLength":192,
			"byteOffset":100956,
			"target":34962
		},
		{
			"buffer":0,
			"byteLength":384,
			"byteOffset":101148,
			"target":34962
		},
		{
			"buffer":0,
			"byteLength":72,
			"byteOffset":101532,
			"target":34963
		},
		{
			"buffer":0,
			"byteLength":288,
			"byteOffset":101604,
			"target":34962
		},
		{
			"buffer":0,
			"byteLength":288,
			"byteOffset":101892,
			"target":34962
		},
		{
			"buffer":0,
			"byteLength":192,
			"byteOffset":102180,
			"target":34962
		},
		{
			"buffer":0,
			"byteLength":384,
			"byteOffset":102372,
			"target":34962
		},
		{
			"buffer":0,
			"byteLength":720,
			"byteOffset":102756,
			"target":34962
		},
		{
			"buffer":0,
			"byteLength":720,
			"byteOffset":103476,
			"target":34962
		},
		{
			"buffer":0,
			"byteLength":480,
			"byteOffset":104196,
			"target":34962
		},
		{
			"buffer":0,
			"byteLength":960,
			"byteOffset":104676,
			"target":34962
		},
		{
			"buffer":0,
			"byteLength":372,
			"byteOffset":105636,
			"target":34963
		},
		{
			"buffer":0,
			"byteLength":288,
			"byteOffset":106008,
			"target":34962
		},
		{
			"buffer":0,
			"byteLength":288,
			"byteOffset":106296,
			"target":34962
		},
		{
			"buffer":0,
			"byteLength":192,
			"byteOffset":106584,
			"target":34962
		},
		{
			"buffer":0,
			"byteLength":384,
			"byteOffset":106776,
			"target":34962
		},
		{
			"buffer":0,
			"byteLength":288,
			"byteOffset":107160,
			"target":34962
		},
		{
			"buffer":0,
			"byteLength":288,
			"byteOffset":107448,
			"target":34962
		},
		{
			"buffer":0,
			"byteLength":192,
			"byteOffset":107736,
			"target":34962
		},
		{
			"buffer":0,
			"byteLength":384,
			"byteOffset":107928,
			"target":34962
		},
		{
			"buffer":0,
			"byteLength":288,
			"byteOffset":108312,
			"target":34962
		},
		{
			"buffer":0,
			"byteLength":288,
			"byteOffset":108600,
			"target":34962
		},
		{
			"buffer":0,
			"byteLength":192,
			"byteOffset":108888,
			"target":34962
		},
		{
			"buffer":0,
			"byteLength":384,
			"byteOffset":109080,
			"target":34962
		},
		{
			"buffer":0,
			"byteLength":288,
			"byteOffset":109464,
			"target":34962
		},
		{
			"buffer":0,
			"byteLength":288,
			"byteOffset":109752,
			"target":34962
		},
		{
			"buffer":0,
			"byteLength":192,
			"byteOffset":110040,
			"target":34962
		},
		{
			"buffer":0,
			"byteLength":384,
			"byteOffset":110232,
			"target":34962
		},
		{
			"buffer":0,
			"byteLength":288,
			"byteOffset":110616,
			"target":34962
		},
		{
			"buffer":0,
			"byteLength":288,
			"byteOffset":110904,
			"target":34962
		},
		{
			"buffer":0,
			"byteLength":192,
			"byteOffset":111192,
			"target":34962
		},
		{
			"buffer":0,
			"byteLength":384,
			"byteOffset":111384,
			"target":34962
		},
		{
			"buffer":0,
			"byteLength":288,
			"byteOffset":111768,
			"target":34962
		},
		{
			"buffer":0,
			"byteLength":288,
			"byteOffset":112056,
			"target":34962
		},
		{
			"buffer":0,
			"byteLength":192,
			"byteOffset":112344,
			"target":34962
		},
		{
			"buffer":0,
			"byteLength":384,
			"byteOffset":112536,
			"target":34962
		},
		{
			"buffer":0,
			"byteLength":720,
			"byteOffset":112920,
			"target":34962
		},
		{
			"buffer":0,
			"byteLength":720,
			"byteOffset":113640,
			"target":34962
		},
		{
			"buffer":0,
			"byteLength":480,
			"byteOffset":114360,
			"target":34962
		},
		{
			"buffer":0,
			"byteLength":960,
			"byteOffset":114840,
			"target":34962
		},
		{
			"buffer":0,
			"byteLength":720,
			"byteOffset":115800,
			"target":34962
		},
		{
			"buffer":0,
			"byteLength":720,
			"byteOffset":116520,
			"target":34962
		},
		{
			"buffer":0,
			"byteLength":480,
			"byteOffset":117240,
			"target":34962
		},
		{
			"buffer":0,
			"byteLength":960,
			"byteOffset":117720,
			"target":34962
		}
	],
	"samplers":[
		{
			"magFilter":9729,
			"minFilter":9987
		}
	],
	"buffers":[
		{
			"byteLength":118680,
			"uri":"ground.bin"
		}
	]
}
